HIERARCHY
ROOT Hips
{
	OFFSET 0.00000 0.00000 0.00000
	CHANNELS 6 Xposition Yposition Zposition Zrotation Yrotation Xrotation 
	JOINT LHipJoint
	{
		OFFSET 0 0 0
		CHANNELS 3 Zrotation Yrotation Xrotation
		JOINT LeftUpLeg
		{
			OFFSET 1.41496 -1.84582 0.78394
			CHANNELS 3 Zrotation Yrotation Xrotation
			JOINT LeftLeg
			{
				OFFSET 2.58040 -7.08960 0.00000
				CHANNELS 3 Zrotation Yrotation Xrotation
				JOINT LeftFoot
				{
					OFFSET 2.64719 -7.27309 0.00000
					CHANNELS 3 Zrotation Yrotation Xrotation
					JOINT LeftToeBase
					{
						OFFSET 0.20718 -0.56921 2.20259
						CHANNELS 3 Zrotation Yrotation Xrotation
						End Site
						{
							OFFSET 0.00000 -0.00000 1.14243
						}
					}
				}
			}
		}
	}
	JOINT RHipJoint
	{
		OFFSET 0 0 0
		CHANNELS 3 Zrotation Yrotation Xrotation
		JOINT RightUpLeg
		{
			OFFSET -1.40551 -1.84582 0.78394
			CHANNELS 3 Zrotation Yrotation Xrotation
			JOINT RightLeg
			{
				OFFSET -2.56572 -7.04926 0.00000
				CHANNELS 3 Zrotation Yrotation Xrotation
				JOINT RightFoot
				{
					OFFSET -2.57974 -7.08778 0.00000
					CHANNELS 3 Zrotation Yrotation Xrotation
					JOINT RightToeBase
					{
						OFFSET -0.26704 -0.73369 2.20815
						CHANNELS 3 Zrotation Yrotation Xrotation
						End Site
						{
							OFFSET -0.00000 -0.00000 1.16246
						}
					}
				}
			}
		}
	}
	JOINT LowerBack
	{
		OFFSET 0 0 0
		CHANNELS 3 Zrotation Yrotation Xrotation
		JOINT Spine
		{
			OFFSET -0.04690 2.05196 -0.07017
			CHANNELS 3 Zrotation Yrotation Xrotation
			JOINT Spine1
			{
				OFFSET 0.04085 2.05260 0.00800
				CHANNELS 3 Zrotation Yrotation Xrotation
				JOINT Neck
				{
					OFFSET 0 0 0
					CHANNELS 3 Zrotation Yrotation Xrotation
					JOINT Neck1
					{
						OFFSET -0.03582 1.80995 0.19301
						CHANNELS 3 Zrotation Yrotation Xrotation
						JOINT Head
						{
							OFFSET 0.00952 1.80195 -0.36389
							CHANNELS 3 Zrotation Yrotation Xrotation
							End Site
							{
								OFFSET 0.00392 1.85062 -0.14494
							}
						}
					}
				}
				JOINT LeftShoulder
				{
					OFFSET 0 0 0
					CHANNELS 3 Zrotation Yrotation Xrotation
					JOINT LeftArm
					{
						OFFSET 3.55224 1.39726 -0.13667
						CHANNELS 3 Zrotation Yrotation Xrotation
						JOINT LeftForeArm
						{
							OFFSET 5.14507 -0.00000 -0.00000
							CHANNELS 3 Zrotation Yrotation Xrotation
							JOINT LeftHand
							{
								OFFSET 3.50646 -0.00000 0.00000
								CHANNELS 3 Zrotation Yrotation Xrotation
								JOINT LeftFingerBase
								{
									OFFSET 0 0 0
									CHANNELS 3 Zrotation Yrotation Xrotation
									JOINT LeftHandIndex1
									{
										OFFSET 0.62997 -0.00000 0.00000
										CHANNELS 3 Zrotation Yrotation Xrotation
										End Site
										{
											OFFSET 0.50790 -0.00000 0.00000
										}
									}
								}
								JOINT LThumb
								{
									OFFSET 0 0 0
									CHANNELS 3 Zrotation Yrotation Xrotation
									End Site
									{
										OFFSET 0.51565 -0.00000 0.51565
									}
								}
							}
						}
					}
				}
				JOINT RightShoulder
				{
					OFFSET 0 0 0
					CHANNELS 3 Zrotation Yrotation Xrotation
					JOINT RightArm
					{
						OFFSET -3.06467 1.61290 -0.28813
						CHANNELS 3 Zrotation Yrotation Xrotation
						JOINT RightForeArm
						{
							OFFSET -5.23200 -0.00000 -0.00000
							CHANNELS 3 Zrotation Yrotation Xrotation
							JOINT RightHand
							{
								OFFSET -3.65641 -0.00000 0.00000
								CHANNELS 3 Zrotation Yrotation Xrotation
								JOINT RightFingerBase
								{
									OFFSET 0 0 0
									CHANNELS 3 Zrotation Yrotation Xrotation
									JOINT RightHandIndex1
									{
										OFFSET -0.65681 -0.00000 0.00000
										CHANNELS 3 Zrotation Yrotation Xrotation
										End Site
										{
											OFFSET -0.52953 -0.00000 0.00000
										}
									}
								}
								JOINT RThumb
								{
									OFFSET 0 0 0
									CHANNELS 3 Zrotation Yrotation Xrotation
									End Site
									{
										OFFSET -0.53762 -0.00000 0.53762
									}
								}
							}
						}
					}
				}
			}
		}
	}
}
MOTION
Frames: 14
Frame Time: .0083333
6.6425 15.3294 -0.5148 9.8966 16.9137 7.9486 0.0000 0.0000 0.0000 -4.6572 -15.2071 -29.5109 8.5966 16.5410 54.6844 1.9319 -19.2277 -26.5712 2.4333 -9.7156 -28.0606 0.0000 0.0000 0.0000 14.9656 -9.1313 -27.1101 -24.1251 -19.5870 102.1414 -0.3417 -1.5626 -11.7240 -4.1850 12.4026 -37.1716 -11.9829 -0.0556 18.1727 -4.8823 -2.6714 3.0917 2.0985 -1.0513 -6.5195 -7.5969 -5.5987 -16.7153 9.0992 -7.0272 8.8190 3.4115 -3.0017 5.9935 0.0000 -0.0000 0.0000 -72.8948 -3.1752 29.9800 128.8879 -53.4343 -92.9352 -0.0000 0.0000 -8.7304 19.8573 -9.7822 -3.5113 -7.1250 0.0000 -0.0000 -5.0751 19.6133 3.0892 0.0000 -0.0000 0.0000 83.6464 -30.5297 27.2634 -63.5929 57.1937 -37.3463 0.0000 -0.0000 -12.1329 -27.8742 5.2853 -2.7892 7.1250 -0.0000 -0.0000 -0.8824 -24.0056 -0.4471
6.7833 15.2613 -0.1615 10.4168 16.5306 8.5062 0.0000 0.0000 0.0000 -5.5566 -14.8667 -28.5359 8.7450 16.6408 55.2039 2.3345 -19.2426 -28.7619 2.4306 -9.7107 -28.0448 0.0000 0.0000 0.0000 15.2318 -8.8059 -31.0808 -24.6715 -19.4685 103.7758 -0.4462 -1.1133 -13.0708 -4.2301 12.4605 -37.3810 -12.1865 -0.1561 18.4542 -4.9734 -2.8940 3.0928 2.1673 -1.1471 -6.6391 -7.4451 -5.5031 -17.1365 8.9225 -6.8553 8.4604 3.3436 -2.9197 5.9214 0.0000 0.0000 0.0000 -73.6611 -5.5023 29.6193 128.6012 -53.5443 -92.7047 -0.0000 0.0000 -8.4583 20.0372 -9.7145 -3.5215 -7.1250 0.0000 -0.0000 -4.9460 19.6723 3.0034 0.0000 0.0000 0.0000 84.3112 -30.6099 26.3517 -62.2855 56.8888 -36.2492 0.0000 -0.0000 -13.0424 -28.4756 5.2796 -2.8573 7.1250 -0.0000 -0.0000 -1.3295 -23.9788 -0.6746
6.9218 15.2006 0.1920 10.8948 16.0711 9.0909 0.0000 0.0000 0.0000 -6.4455 -14.5587 -27.5151 8.8570 16.7148 55.5943 2.7270 -19.0585 -30.7499 2.4356 -9.7198 -28.0742 0.0000 0.0000 0.0000 15.4977 -8.1355 -35.1111 -25.0741 -19.3712 104.9866 -0.5542 -0.7591 -14.3578 -4.3022 12.5520 -37.7138 -12.3832 -0.2441 18.7079 -4.9954 -3.0934 3.0760 2.3025 -1.2307 -6.7615 -7.2925 -5.3894 -17.5759 8.6910 -6.6524 8.1006 3.2617 -2.8265 5.8471 0.0000 -0.0000 0.0000 -74.6386 -7.6634 29.4360 128.8569 -53.4462 -92.9103 -0.0000 0.0000 -8.4072 20.1739 -9.6910 -3.5391 -7.1250 0.0000 -0.0000 -4.8482 19.6876 2.9420 0.0000 -0.0000 0.0000 84.8285 -30.7211 25.5474 -61.4832 56.6924 -35.5780 0.0000 -0.0000 -13.9361 -29.0189 5.3456 -2.9585 7.1250 -0.0000 -0.0000 -1.7293 -23.8726 -0.8819
7.0567 15.1490 0.5491 11.3804 15.5382 9.6959 0.0000 0.0000 0.0000 -7.3990 -14.2383 -26.3988 8.9156 16.7531 55.7978 3.0973 -18.7079 -32.5224 2.4373 -9.7230 -28.0842 0.0000 0.0000 0.0000 15.6446 -7.1489 -39.1178 -25.3254 -19.3060 105.7454 -0.6643 -0.4887 -15.5839 -4.4057 12.6815 -38.1878 -12.6265 -0.3161 18.9485 -4.9663 -3.2795 3.0370 2.5167 -1.3048 -6.8957 -7.1309 -5.2491 -18.0193 8.4027 -6.4103 7.7395 3.1649 -2.7184 5.7676 0.0000 0.0000 0.0000 -75.7920 -9.6099 29.4480 129.6587 -53.1322 -93.5531 -0.0000 0.0000 -8.6374 20.2477 -9.6846 -3.5509 -7.1250 0.0000 -0.0000 -4.7955 19.6891 2.9096 0.0000 0.0000 0.0000 85.2104 -30.9093 24.8721 -61.2684 56.6386 -35.3985 0.0000 -0.0000 -14.6649 -29.4316 5.5201 -3.1066 7.1250 -0.0000 -0.0000 -2.0252 -23.6486 -1.0434
7.1868 15.1084 0.9130 11.8834 14.9370 10.3096 0.0000 0.0000 0.0000 -8.4463 -13.8648 -25.1384 8.8995 16.7426 55.7419 3.4417 -18.1957 -34.0980 2.4302 -9.7099 -28.0424 0.0000 0.0000 0.0000 15.6045 -5.8906 -43.0251 -25.4184 -19.2810 106.0271 -0.7727 -0.3049 -16.7261 -4.5306 12.8349 -38.7535 -12.9337 -0.3729 19.1645 -4.8917 -3.4548 2.9791 2.8130 -1.3707 -7.0301 -6.9616 -5.0755 -18.4484 8.0626 -6.1221 7.3758 3.0560 -2.5922 5.6798 0.0000 0.0000 0.0000 -77.0765 -11.3160 29.6603 130.9474 -52.6062 -94.5805 -0.0000 0.0000 -9.1681 20.2709 -9.6546 -3.5444 -7.1250 0.0000 -0.0000 -4.7786 19.7192 2.8960 0.0000 0.0000 0.0000 85.4672 -31.1893 24.3383 -61.6627 56.7369 -35.7280 0.0000 -0.0000 -15.1043 -29.6610 5.8048 -3.2965 7.1250 -0.0000 -0.0000 -2.1775 -23.3082 -1.1390
7.3115 15.0806 1.2866 12.3918 14.2786 10.9160 0.0000 0.0000 0.0000 -9.5803 -13.4226 -23.6802 8.7892 16.6702 55.3584 3.7628 -17.4824 -35.5106 2.4365 -9.7214 -28.0793 0.0000 0.0000 0.0000 15.3461 -4.4283 -46.7650 -25.3463 -19.3004 105.8087 -0.8743 -0.2220 -17.7561 -4.6664 12.9980 -39.3610 -13.2822 -0.4238 19.3455 -4.7829 -3.6259 2.9057 3.1681 -1.4326 -7.1562 -6.7694 -4.8620 -18.8548 7.6681 -5.7847 7.0245 2.9323 -2.4460 5.5871 -0.0000 -0.0000 0.0000 -78.4203 -12.7581 30.0519 132.6122 -51.8861 -95.8968 -0.0000 0.0000 -9.9565 20.2364 -9.5881 -3.5138 -7.1250 0.0000 -0.0000 -4.8024 19.7921 2.9027 -0.0000 -0.0000 0.0000 85.6197 -31.5574 23.9577 -62.6236 56.9695 -36.5326 0.0000 -0.0000 -15.1808 -29.6845 6.1881 -3.5161 7.1250 -0.0000 -0.0000 -2.1708 -22.8673 -1.1574
7.4308 15.0670 1.6715 12.8779 13.5853 11.5025 0.0000 0.0000 0.0000 -10.7646 -12.9492 -21.9849 8.5755 16.5267 54.6102 4.0515 -16.5736 -36.7456 2.4644 -9.7728 -28.2442 0.0000 0.0000 0.0000 14.8764 -2.8491 -50.2844 -25.1060 -19.3631 105.0827 -0.9644 -0.2501 -18.6564 -4.7996 13.1545 -39.9498 -13.6180 -0.4861 19.4836 -4.6514 -3.8032 2.8175 3.5423 -1.4970 -7.2714 -6.5472 -4.6068 -19.2314 7.2297 -5.4011 6.7088 2.7953 -2.2802 5.4970 0.0000 0.0000 0.0000 -79.7440 -13.9169 30.5886 134.5213 -51.0009 -97.3898 -0.0000 0.0000 -10.8985 20.1871 -9.4943 -3.4706 -7.1250 0.0000 -0.0000 -4.8365 19.8946 2.9123 0.0000 0.0000 0.0000 85.6918 -31.9922 23.7359 -64.0493 57.2958 -37.7301 0.0000 -0.0000 -14.8945 -29.5079 6.6466 -3.7479 7.1250 -0.0000 -0.0000 -2.0120 -22.3550 -1.0962
7.5446 15.0677 2.0684 13.3045 12.8838 12.0710 0.0000 0.0000 0.0000 -11.9413 -12.4594 -20.0811 8.2616 16.3083 53.4996 4.2893 -15.4748 -37.7434 2.5227 -9.8791 -28.5861 0.0000 0.0000 0.0000 14.2388 -1.2236 -53.5649 -24.6972 -19.4626 103.8530 -1.0375 -0.4105 -19.4074 -4.9133 13.2855 -40.4467 -13.8852 -0.5775 19.5689 -4.5001 -3.9971 2.7076 3.9037 -1.5702 -7.3800 -6.2940 -4.3128 -19.5695 6.7581 -4.9786 6.4518 2.6473 -2.0977 5.4175 -0.0000 0.0000 0.0000 -80.9789 -14.7796 31.2333 136.5360 -49.9934 -98.9444 -0.0000 0.0000 -11.8489 20.1445 -9.3992 -3.4284 -7.1250 0.0000 -0.0000 -4.8658 19.9980 2.9188 -0.0000 0.0000 0.0000 85.7020 -32.4730 23.6680 -65.8514 57.6776 -39.2498 0.0000 -0.0000 -14.3346 -29.1634 7.1244 -3.9592 7.1250 -0.0000 -0.0000 -1.7300 -21.8355 -0.9629
7.6535 15.0819 2.4774 13.6522 12.2065 12.6346 0.0000 0.0000 0.0000 -13.0698 -11.9684 -18.0287 7.8646 16.0187 52.0735 4.4539 -14.2056 -38.4287 2.6119 -10.0386 -29.1019 0.0000 0.0000 0.0000 13.4698 0.3773 -56.6032 -24.1241 -19.5872 102.1382 -1.0912 -0.7009 -20.0090 -5.0017 13.3857 -40.8301 -14.0419 -0.7161 19.5859 -4.3323 -4.2192 2.5750 4.2277 -1.6594 -7.4764 -6.0145 -3.9854 -19.8694 6.2688 -4.5254 6.2657 2.4929 -1.9014 5.3546 0.0000 -0.0000 0.0000 -82.0730 -15.3504 31.9489 138.5430 -48.9098 -100.4697 -0.0000 0.0000 -12.6599 20.1314 -9.3262 -3.3996 -7.1250 0.0000 -0.0000 -4.8745 20.0761 2.9155 0.0000 -0.0000 0.0000 85.6630 -32.9653 23.7505 -67.8954 58.0708 -40.9808 0.0000 -0.0000 -13.6215 -28.7356 7.6272 -4.1622 7.1250 -0.0000 -0.0000 -1.3874 -21.2978 -0.7889
7.7575 15.1081 2.8986 13.9256 11.5597 13.1984 0.0000 0.0000 0.0000 -14.1410 -11.4761 -15.8750 7.4081 15.6661 50.4012 4.5291 -12.7821 -38.7464 2.7362 -10.2552 -29.8072 0.0000 0.0000 0.0000 12.5819 1.9069 -59.3878 -23.3945 -19.7215 99.9693 -1.1256 -1.0786 -20.4650 -5.0486 13.4383 -41.0322 -14.0886 -0.9009 19.5278 -4.1531 -4.4665 2.4217 4.5072 -1.7640 -7.5557 -5.7173 -3.6361 -20.1370 5.7703 -4.0551 6.1563 2.3347 -1.6976 5.3130 0.0000 0.0000 0.0000 -82.9912 -15.6429 32.7189 140.4481 -47.8022 -101.8935 -0.0000 0.0000 -13.2089 20.1368 -9.2670 -3.3792 -7.1250 0.0000 -0.0000 -4.8701 20.1384 2.9060 0.0000 0.0000 0.0000 85.5930 -33.4439 23.9595 -70.0790 58.4461 -42.8380 0.0000 -0.0000 -12.9006 -28.2886 8.1072 -4.3403 7.1250 -0.0000 -0.0000 -1.0342 -20.7914 -0.5999
7.8562 15.1436 3.3306 14.1429 10.9623 13.7646 0.0000 0.0000 0.0000 -15.1464 -10.9867 -13.6804 6.9193 15.2636 48.5686 4.4986 -11.2736 -38.6326 2.8964 -10.5254 -30.6956 0.0000 0.0000 0.0000 11.5939 3.3155 -61.9113 -22.5191 -19.8472 97.3833 -1.1411 -1.5192 -20.7835 -5.0705 13.4627 -41.1262 -14.0475 -1.1274 19.4141 -3.9635 -4.7412 2.2501 4.7538 -1.8841 -7.6244 -5.4162 -3.2772 -20.3706 5.2748 -3.5802 6.1103 2.1773 -1.4920 5.2899 0.0000 0.0000 0.0000 -83.7164 -15.6748 33.5381 142.1887 -46.7184 -103.1719 -0.0000 0.0000 -13.4401 20.1592 -9.2398 -3.3735 -7.1250 0.0000 -0.0000 -4.8537 20.1657 2.8932 0.0000 0.0000 0.0000 85.5083 -33.8906 24.2663 -72.3303 58.7868 -44.7599 0.0000 -0.0000 -12.3136 -27.8779 8.5252 -4.4838 7.1250 -0.0000 -0.0000 -0.7127 -20.3554 -0.4203
7.9496 15.1871 3.7730 14.3227 10.4193 14.3222 0.0000 0.0000 0.0000 -16.0885 -10.4943 -11.4781 6.4233 14.8264 46.6577 4.3544 -9.7374 -38.0411 3.0893 -10.8383 -31.7363 0.0000 0.0000 0.0000 10.5167 4.5664 -64.1446 -21.5106 -19.9452 94.4206 -1.1436 -1.9547 -20.9942 -5.0848 13.4787 -41.1878 -13.9339 -1.3845 19.2662 -3.7691 -5.0357 2.0665 4.9680 -2.0158 -7.6880 -5.1247 -2.9229 -20.5653 4.7911 -3.1159 6.1044 2.0241 -1.2919 5.2784 -0.0000 0.0000 0.0000 -84.2445 -15.4766 34.4154 143.7186 -45.7057 -104.2764 -0.0000 0.0000 -13.3691 20.1684 -9.2454 -3.3772 -7.1250 0.0000 -0.0000 -4.8472 20.1591 2.8900 -0.0000 0.0000 0.0000 85.4352 -34.2962 24.6258 -74.5784 59.0820 -46.6857 0.0000 -0.0000 -11.9449 -27.5303 8.8708 -4.5955 7.1250 -0.0000 -0.0000 -0.4423 -19.9980 -0.2644
8.0372 15.2368 4.2249 14.4847 9.9187 14.8511 0.0000 0.0000 0.0000 -16.9730 -9.9913 -9.2941 5.9423 14.3722 44.7499 4.0963 -8.2647 -36.9354 3.3070 -11.1762 -32.8765 0.0000 0.0000 0.0000 9.3727 5.6503 -66.0499 -20.3866 -19.9964 91.1305 -1.1302 -2.3655 -21.0636 -5.1095 13.5060 -41.2935 -13.7898 -1.6489 19.1009 -3.5681 -5.3292 1.8869 5.1702 -2.1490 -7.7383 -4.8645 -2.5873 -20.7245 4.3271 -2.6742 6.1093 1.8800 -1.1031 5.2706 0.0000 -0.0000 0.0000 -84.5996 -15.0942 35.3676 144.9994 -44.8126 -105.1862 -0.0000 0.0000 -13.0758 20.1563 -9.3123 -3.3992 -7.1250 0.0000 -0.0000 -4.8565 20.0892 2.9032 0.0000 -0.0000 0.0000 85.3925 -34.6343 24.9854 -76.7265 59.3237 -48.5309 0.0000 -0.0000 -11.8046 -27.2686 9.1608 -4.6913 7.1250 -0.0000 -0.0000 -0.2376 -19.6968 -0.1436
8.1191 15.2919 4.6858 14.6410 9.4650 15.3254 0.0000 0.0000 0.0000 -17.7962 -9.4706 -7.1497 5.4945 13.9199 42.9177 3.7320 -6.9669 -35.2860 3.5311 -11.5088 -34.0157 0.0000 0.0000 0.0000 8.1930 6.5543 -67.5824 -19.1704 -19.9835 87.5738 -1.0996 -2.7391 -20.9709 -5.1552 13.5564 -41.4888 -13.6221 -1.9086 18.9524 -3.3693 -5.6131 1.7223 5.3540 -2.2794 -7.7837 -4.6379 -2.2793 -20.8512 3.8847 -2.2654 6.1065 1.7447 -0.9303 5.2608 0.0000 -0.0000 0.0000 -84.7961 -14.5513 36.4010 146.0099 -44.0774 -105.8938 -0.0000 0.0000 -12.6415 20.0804 -9.4446 -3.4328 -7.1250 0.0000 -0.0000 -4.9123 19.9545 2.9517 0.0000 -0.0000 0.0000 85.4092 -34.8977 25.3062 -78.7141 59.5132 -50.2421 0.0000 -0.0000 -11.8569 -27.0922 9.3787 -4.7653 7.1250 -0.0000 -0.0000 -0.0986 -19.4695 -0.0601
